<?xml version="1.0" encoding="utf-8"?>
<!-- Generator: Adobe Illustrator 19.1.0, SVG Export Plug-In . SVG Version: 6.00 Build 0)  -->
<svg version="1.1" id="Layer_1" xmlns="http://www.w3.org/2000/svg" xmlns:xlink="http://www.w3.org/1999/xlink" x="0px" y="0px"
	 viewBox="0 0 64 64" enable-background="new 0 0 64 64" xml:space="preserve">
<g id="Microphone_1_">
	<path d="M32,40c6.0653992,0,11-5.0653992,11-11.2919998V11.2919998C43,5.0654998,38.0653992,0,32,0S21,5.0654998,21,11.2919998
		v17.4160004C21,34.9346008,25.9346008,40,32,40z M23,11.2919998C23,6.1684999,27.0375996,2,32,2s9,4.1684999,9,9.2919998
		v17.4160004C41,33.8316002,36.9623985,38,32,38s-9-4.1683998-9-9.2919998V11.2919998z"/>
	<path d="M50,25c-0.5522041,0-1,0.4477997-1,1v3.6333008C49,39.2094994,41.3740005,47,32,47s-17-7.7905006-17-17.3666992V26
		c0-0.5522003-0.4477997-1-1-1s-1,0.4477997-1,1v3.6333008c0,10.3348007,7.9894009,18.780098,18,19.3149986V62H21
		c-0.5522003,0-1,0.4477997-1,1c0,0.5522995,0.4477997,1,1,1h22c0.5521965,0,1-0.4477005,1-1c0-0.5522003-0.4478035-1-1-1H33
		V48.9482994c10.0105972-0.5349007,18-8.9801979,18-19.3149986V26C51,25.4477997,50.5521965,25,50,25z"/>
</g>
<g>
</g>
<g>
</g>
<g>
</g>
<g>
</g>
<g>
</g>
<g>
</g>
<g>
</g>
<g>
</g>
<g>
</g>
<g>
</g>
<g>
</g>
<g>
</g>
<g>
</g>
<g>
</g>
<g>
</g>
</svg>
